<svg width="343" height="325" viewBox="0 0 343 325" fill="none" xmlns="http://www.w3.org/2000/svg">
<path d="M233.084 84.9541C250.321 84.9541 264.295 70.0421 264.295 51.6473C264.295 33.2525 250.321 18.3405 233.084 18.3405C215.846 18.3405 201.872 33.2525 201.872 51.6473C201.872 70.0421 215.846 84.9541 233.084 84.9541Z" fill="#F4DDBD"/>
<path d="M209.77 68.3234C209.77 68.3234 215.673 115.633 206.585 120.98C197.498 126.327 260.473 126.735 260.473 126.735C260.473 126.735 246.46 85.6792 252.787 73.1268L209.77 68.3234Z" fill="#F4DDBD"/>
<path d="M305.656 121.524L301.155 152.383L290.114 206.173L289.774 209.118L285.952 243.195L283.404 265.853L281.706 281.079C271.345 286.743 263.871 290.686 263.871 290.686C263.871 290.686 263.234 287.242 262.172 282.801C254.911 285.112 241.449 288.964 230.069 289.734C234.23 294.674 218.671 279.431 216.08 282.875C208.267 293.207 193.507 291.456 182.254 283.39C181.999 285.339 181.872 287.287 181.956 289.236L173.336 282.167L174.185 265.898L175.629 238.347L177.455 203.771C176.903 202.276 176.394 200.78 176.011 199.239C173.379 189.225 170.151 169.195 167.688 152.429C165.693 138.925 161.786 120.164 161.446 117.717C161.404 117.4 165.99 115.315 165.99 115.315L211.597 102.083C214.994 110.467 230.833 113.004 230.833 113.004C243.955 112.053 254.231 104.666 254.231 104.666L305.656 121.524Z" fill="#1C1C1C"/>
<path d="M267.48 285.179C267.48 285.179 265.442 285.904 262.172 286.947C254.91 289.258 241.449 293.11 230.069 293.88C220.259 294.56 211.979 292.928 210.45 286.086C209.813 283.14 210.705 280.738 212.743 278.745C218.731 272.808 234.4 270.678 246.8 269.953C250.324 269.727 253.552 269.636 256.269 269.636C260.855 269.591 263.87 269.682 263.87 269.682L263.955 269.999L267.48 285.179Z" fill="#A0616A"/>
<path d="M207.095 20.1531L205.694 16.7998C205.694 16.7998 213.465 3.29583 230.451 4.56465L220.005 4.42871C220.005 4.42871 237.373 -6.03913 247.989 7.057C253.552 13.9449 260.006 22.0111 264.041 31.1648H270.283L267.692 37.2823L276.822 43.3999L267.438 42.3123C267.99 45.6657 268.075 49.1096 267.692 52.463C267.31 55.8616 265.654 58.9431 263.191 61.0729C263.191 61.0729 255.93 45.0766 255.93 42.5842V48.8377C255.93 48.8377 250.112 43.2186 250.112 39.5028L246.927 43.8531L245.356 37.0104L225.737 43.8531L228.922 38.234L216.735 40.0919L221.491 33.2493C221.491 33.2493 207.69 41.3607 207.18 48.2033C206.671 55.0459 202.594 61.5714 202.594 61.5714C202.594 61.5714 191.723 29.4881 207.095 20.1531Z" fill="#91703C"/>
<path d="M340.349 243.875C337.164 247.546 329.308 253.074 319.754 259.101C316.187 261.321 312.408 263.633 308.543 265.898C299.328 271.336 289.689 276.774 281.748 281.124C271.387 286.789 263.913 290.731 263.913 290.731C263.913 290.731 263.276 287.287 262.214 282.846C260.813 276.955 258.732 269.297 256.524 265.898C256.439 265.762 256.354 265.672 256.312 265.581C255.675 264.675 255.038 264.176 254.401 264.176L285.995 243.286L299.668 234.268L289.816 209.209L277.459 177.76L284.89 152.474L292.364 127.052L305.656 121.614C305.656 121.614 311.516 133.532 316.994 152.972C317.885 155.238 318.777 157.595 319.754 159.996C331.941 191.672 347.186 235.945 340.349 243.875Z" fill="#1C1C1C"/>
<path d="M233.551 306.886C225.737 317.217 193.507 295.602 182.253 287.536C179.79 285.769 178.347 284.681 178.347 284.681L188.666 269.999L191.935 265.377C191.935 265.377 194.865 267.053 199.154 269.727C199.324 269.818 199.452 269.908 199.621 270.044C203.358 272.4 208.029 275.437 212.743 278.835C219.24 283.548 225.822 288.895 230.069 293.925C234.23 298.819 236.141 303.487 233.551 306.886Z" fill="#A0616A"/>
<path d="M199.154 265.581C198.008 265.581 196.861 265.672 195.715 265.898C185.948 267.711 183.06 277.137 182.253 283.435C181.999 285.384 181.871 287.333 181.956 289.281L173.336 282.212L170.193 279.629C162.635 276.819 155.883 271.835 150.065 265.944C145.012 260.732 140.468 254.977 136.477 248.769C132.527 242.652 129.045 236.217 125.988 229.555C124.247 225.794 124.204 221.399 125.818 217.547L136.477 192.17L152.103 155.057C152.231 154.196 152.358 153.29 152.486 152.474C155.586 133.532 161.488 117.762 161.488 117.762L170.193 125.103L174.44 152.474L179.706 186.461L176.011 199.285L167.476 228.921L175.629 238.347L199.154 265.581Z" fill="#1C1C1C"/>
<path d="M317.108 302.142V304.547C317.108 305.217 316.997 305.848 316.774 306.479C316.662 306.755 316.551 307.031 316.402 307.268C315.511 308.884 313.876 309.87 312.093 309.87H146.247C144.501 309.87 142.866 308.884 141.974 307.268C141.826 307.031 141.714 306.755 141.603 306.479C141.38 305.848 141.269 305.217 141.269 304.547V302.142C141.269 299.224 143.498 296.859 146.247 296.859H155.795V295.755C155.795 295.637 155.869 295.518 156.018 295.518H160.996C161.108 295.518 161.219 295.597 161.219 295.755V296.859H164.34V295.755C164.34 295.637 164.414 295.518 164.563 295.518H169.541C169.653 295.518 169.764 295.597 169.764 295.755V296.859H172.885V295.755C172.885 295.637 172.959 295.518 173.108 295.518H178.086C178.197 295.518 178.309 295.597 178.309 295.755V296.859H181.43V295.755C181.43 295.637 181.504 295.518 181.653 295.518H186.631C186.742 295.518 186.854 295.597 186.854 295.755V296.859H189.975V295.755C189.975 295.637 190.049 295.518 190.197 295.518H195.176C195.287 295.518 195.399 295.597 195.399 295.755V296.859H198.519V295.755C198.519 295.637 198.594 295.518 198.742 295.518H203.721C203.832 295.518 203.944 295.597 203.944 295.755V296.859H207.064V295.755C207.064 295.637 207.139 295.518 207.287 295.518H246.371C246.482 295.518 246.594 295.597 246.594 295.755V296.859H249.715V295.755C249.715 295.637 249.789 295.518 249.938 295.518H254.916C255.027 295.518 255.139 295.637 255.139 295.755V296.859H258.26V295.755C258.26 295.637 258.334 295.518 258.483 295.518H263.461C263.572 295.518 263.684 295.597 263.684 295.755V296.859H266.805V295.755C266.805 295.637 266.879 295.518 267.027 295.518H272.006C272.117 295.518 272.229 295.597 272.229 295.755V296.859H275.349V295.755C275.349 295.637 275.424 295.518 275.572 295.518H280.551C280.662 295.518 280.774 295.637 280.736 295.755V296.859H283.857V295.755C283.857 295.637 283.932 295.518 284.08 295.518H289.058C289.17 295.518 289.281 295.597 289.281 295.755V296.859H292.402V295.755C292.402 295.637 292.476 295.518 292.625 295.518H297.603C297.715 295.518 297.826 295.597 297.826 295.755V296.859H312.39C314.879 296.859 317.108 299.224 317.108 302.142Z" fill="#D1D1D1"/>
<path d="M303.992 200.513H242.077V199.158H214.002V200.513H151.865C149.559 200.513 147.663 202.504 147.663 205.014V295.801C147.663 298.271 149.522 300.302 151.865 300.302H303.954C306.26 300.302 308.156 298.31 308.156 295.801V204.974C308.156 202.504 306.297 200.513 303.992 200.513Z" fill="#E8E8E8"/>
<rect y="309.646" width="343" height="15.3544" rx="7.67719" fill="#9C8263"/>
<rect x="57.7007" y="301.968" width="64.1122" height="1.27942" rx="0.639709" fill="#7789F3"/>
<path d="M57.7007 305.807C57.7007 304.393 58.8463 303.248 60.2595 303.248H120.531V308.366H60.2595C58.8463 308.366 57.7007 307.22 57.7007 305.807Z" fill="#F0F0F0"/>
<rect x="57.7007" y="308.366" width="64.1122" height="1.27942" rx="0.639709" fill="#7789F3"/>
<rect x="121.813" y="301.968" width="7.67651" height="1.28224" rx="0.641121" transform="rotate(90 121.813 301.968)" fill="#7789F3"/>
<rect x="60.2656" y="293.651" width="54.4953" height="1.91913" rx="0.959563" fill="#EB5757"/>
<rect x="60.2656" y="300.049" width="54.4953" height="1.91913" rx="0.959563" fill="#EB5757"/>
<rect x="114.76" y="293.651" width="7.67651" height="1.63486" rx="0.81743" transform="rotate(90 114.76 293.651)" fill="#EB5757"/>
<path d="M60.2656 297.81C60.2656 296.573 61.2681 295.571 62.5046 295.571H113.671V300.049H62.5046C61.2681 300.049 60.2656 299.046 60.2656 297.81Z" fill="#F0F0F0"/>
<path d="M35.4854 274.824H31.542V301.166H35.4854V274.824Z" fill="#535461"/>
<path d="M35.4854 266.132H31.542V274.824H35.4854V266.132Z" fill="#3AD29F"/>
<path d="M40.9075 276.931H36.9641V303.273H40.9075V276.931Z" fill="#535461"/>
<path d="M40.9075 268.239H36.9641V276.931H40.9075V268.239Z" fill="#4D8AF0"/>
<path d="M47.5623 281.41H43.6189V307.752H47.5623V281.41Z" fill="#535461"/>
<path d="M47.5623 272.717H43.6189V281.409H47.5623V272.717Z" fill="#F55F44"/>
<path d="M28.0918 282.991H50.7662V303.932C50.7662 305.574 50.156 307.148 49.0698 308.309C47.9836 309.47 46.5105 310.122 44.9744 310.122H33.8836C32.3475 310.122 30.8744 309.47 29.7882 308.309C28.702 307.148 28.0918 305.574 28.0918 303.932V282.991Z" fill="#F8F8FF"/>
<path opacity="0.6" d="M155.471 287.484C155.471 287.484 149.442 259.337 162.769 223.051" stroke="#535461" stroke-width="3" stroke-miterlimit="10"/>
<path d="M131.991 279.006H178.634C178.634 279.006 187.835 291.554 173.557 310.205H136.751C136.751 310.205 123.425 297.319 131.991 279.006Z" fill="#7789F3"/>
<path d="M162.099 224.916C162.099 224.916 166.735 216.099 177.84 218.812C177.84 218.812 168.661 235.517 160.389 230.047L162.099 224.916Z" fill="#4DB6AC"/>
<path d="M159.161 234.272C159.161 234.272 158.802 225.255 149.601 222.881C149.601 222.881 150.553 242.55 157.85 239.328L159.161 234.272Z" fill="#4DB6AC"/>
<path d="M156.154 247.59C156.154 247.59 157.851 238.142 175.62 234.072C175.62 234.072 169.953 253.613 155.335 252.829L156.154 247.59Z" fill="#4DB6AC"/>
<path d="M154.713 258.194C154.713 258.194 156.582 248.316 145.476 239.159C145.476 239.159 133.419 261.09 154.196 265.214L154.713 258.194Z" fill="#4DB6AC"/>
<path d="M154.379 271.773C154.379 271.773 153.091 257.811 167.052 255.098C167.052 255.098 161.953 274.594 154.36 278.07L154.379 271.773Z" fill="#4DB6AC"/>
<path opacity="0.3" d="M160.548 230.172C160.548 230.172 172.605 220.339 177.681 218.643" stroke="#535461" stroke-miterlimit="10"/>
<path opacity="0.3" d="M155.313 252.724C155.313 252.724 169.908 236.107 175.62 234.072" stroke="#535461" stroke-miterlimit="10"/>
<path opacity="0.3" d="M149.601 222.881C149.601 222.881 158.485 235.768 157.85 239.159" stroke="#535461" stroke-miterlimit="10"/>
<path opacity="0.3" d="M145.476 239.159C145.476 239.159 150.236 262.22 154.043 265.272" stroke="#535461" stroke-miterlimit="10"/>
<path opacity="0.3" d="M154.36 278.158C154.36 278.158 161.975 255.776 167.052 255.098" stroke="#535461" stroke-miterlimit="10"/>
<g opacity="0.1">
<path opacity="0.1" d="M178.634 279.006H131.992C131.887 279.233 131.785 279.461 131.674 279.684H177.047C177.047 279.684 186.023 291.93 172.478 310.205H173.557C187.835 291.554 178.634 279.006 178.634 279.006Z" fill="black"/>
</g>
<path d="M318.859 278.639C317.223 278.639 315.625 279.158 314.265 280.129C312.905 281.1 311.845 282.48 311.219 284.095C310.593 285.71 310.43 287.487 310.749 289.201C311.068 290.916 311.855 292.49 313.012 293.726C314.168 294.962 315.642 295.804 317.246 296.145C318.85 296.486 320.512 296.311 322.023 295.642C323.534 294.973 324.826 293.841 325.734 292.387C326.643 290.934 327.128 289.225 327.128 287.477C327.128 285.133 326.257 282.885 324.706 281.228C323.155 279.57 321.052 278.639 318.859 278.639ZM318.859 292.916C317.852 292.916 316.868 292.597 316.032 291.999C315.195 291.402 314.543 290.552 314.158 289.558C313.772 288.565 313.672 287.471 313.868 286.416C314.064 285.361 314.549 284.392 315.261 283.631C315.972 282.871 316.879 282.353 317.866 282.143C318.853 281.933 319.876 282.041 320.806 282.452C321.736 282.864 322.531 283.561 323.09 284.456C323.649 285.35 323.947 286.402 323.947 287.477C323.947 288.92 323.411 290.303 322.457 291.323C321.503 292.343 320.208 292.916 318.859 292.916Z" fill="#B84733"/>
<path d="M287.056 271.842H318.859V303.249C318.859 305.016 318.202 306.711 317.033 307.96C315.864 309.21 314.278 309.912 312.625 309.912H293.29C291.637 309.912 290.051 309.21 288.882 307.96C287.712 306.711 287.056 305.016 287.056 303.249V271.842Z" fill="#B84733"/>
<path opacity="0.1" d="M313.135 271.842V303.284C313.135 305.042 312.481 306.728 311.318 307.971C310.155 309.214 308.578 309.912 306.933 309.912H310.113C311.758 309.912 313.335 309.214 314.499 307.971C315.662 306.728 316.315 305.042 316.315 303.284V271.842H313.135Z" fill="black"/>
</svg>
